Nederland
Familie
84 minuten

geregisseerd door Johan Nijenhuis
met Rachelle Verdel, Annet Malherbe en Porgy Franssen

Tovenaar Kwark vindt in het Heksenbos een ei, waar een klein meisje uit komt. Het is een miniheksje, dat hij Foeksia noemt. Foeksia gaat naar de Heksenschool om toveren te leren. De school wordt geleid door Juf Minuul, die een oogje heeft op Kwark. Foeksia geeft vader Kwark veel kopzorgen, omdat ze nieuwsgierig is naar de mensenwereld. Als Foeksia in het bos jongetje Tommie ziet, wint haar nieuwsgierigheid en zoekt ze Tommie op in de mensenstad. Daar komt ze erachter dat Tommie's oom Bob het Heksenbos wil platgooien om een snelweg aan te leggen. Foeksia zal samen met Tommie het Heksenbos moeten redden. Verfilming van het gelijknamige boek van Paul van Loon.
  
http://www.moviemeter.nl/film/68965
 
http://www.imdb.com/title/tt1382720/

Audio: Dutch-Nederlands. Subs: None-Geen

Hoesjes bijgevoegd.

General
Complete name                    : Foeksia de Miniheks-AC3-XviD-DVDRip 2010 Nederlands TBS\Foeksia de Miniheks-AC3-XviD-DVDRip 2010 Nederlands TBS.avi
Format                           : AVI
Format/Info                      : Audio Video Interleave
File size                        : 1.36 GiB
Duration                         : 1h 24mn
Overall bit rate                 : 2 306 Kbps
Writing application              : VirtualDubMod 1.5.4.1 (build 2178/release)
Writing library                  : VirtualDubMod build 2178/release

Video
ID                               : 0
Format                           : MPEG-4 Visual
Format profile                   : Simple@L3
Format settings, BVOP            : No
Format settings, QPel            : No
Format settings, GMC             : No warppoints
Format settings, Matrix          : Default (H.263)
Codec ID                         : XVID
Codec ID/Hint                    : XviD
Duration                         : 1h 24mn
Bit rate                         : 1 848 Kbps
Width                            : 720 pixels
Height                           : 304 pixels
Display aspect ratio             : 2.35:1
Frame rate                       : 25.000 fps
Resolution                       : 8 bits
Colorimetry                      : 4:2:0
Scan type                        : Progressive
Bits/(Pixel*Frame)               : 0.338
Stream size                      : 1.09 GiB (80%)
Writing library                  : XviD 1.1.2 (UTC 2006-11-01)

Audio
ID                               : 1
Format                           : AC-3
Format/Info                      : Audio Coding 3
Codec ID                         : 2000
Duration                         : 1h 24mn
Bit rate mode                    : Constant
Bit rate                         : 448 Kbps
Channel(s)                       : 6 channels
Channel positions                : Front: L C R, Surround: L R, LFE
Sampling rate                    : 48.0 KHz
Stream size                      : 271 MiB (19%)
Alignment                        : Split accross interleaves
Interleave, duration             : 40 ms (1.00 video frame)
Interleave, preload duration     : 500 ms

Thanks to Just4fun-Team.

Blackbeard  TBS.